<svg data-v-423bf9ae="" xmlns="http://www.w3.org/2000/svg" viewBox="0 0 293.15476412360454 60" class="font"><!----><!----><!----><g data-v-423bf9ae="" id="7af2890e-27a6-4b4d-a6f5-d60ac7ab4af9" fill="black" transform="matrix(5.952380997433594,0,0,5.952380997433594,-3.750002000652671,-18.75000118641627)"><path d="M4.03 13.23L4.03 13.23Q2.58 13.23 1.63 12.51L1.63 12.51L1.63 12.51Q0.69 11.79 0.63 10.37L0.63 10.37L0.63 10.37Q0.63 10.23 0.71 10.15L0.71 10.15L0.71 10.15Q0.78 10.07 0.92 10.07L0.92 10.07L1.20 10.07L1.20 10.07Q1.34 10.07 1.42 10.15L1.42 10.15L1.42 10.15Q1.50 10.23 1.51 10.36L1.51 10.36L1.51 10.36Q1.60 11.40 2.29 11.89L2.29 11.89L2.29 11.89Q2.98 12.39 4.03 12.39L4.03 12.39L4.03 12.39Q5.24 12.39 5.89 11.60L5.89 11.60L5.89 11.60Q6.54 10.81 6.54 9.51L6.54 9.51L6.54 4.13L1.37 4.13L1.37 4.13Q1.23 4.13 1.15 4.05L1.15 4.05L1.15 4.05Q1.06 3.96 1.06 3.82L1.06 3.82L1.06 3.60L1.06 3.60Q1.06 3.46 1.15 3.37L1.15 3.37L1.15 3.37Q1.23 3.29 1.37 3.29L1.37 3.29L7.10 3.29L7.10 3.29Q7.25 3.29 7.34 3.37L7.34 3.37L7.34 3.37Q7.42 3.46 7.42 3.61L7.42 3.61L7.42 9.52L7.42 9.52Q7.42 11.20 6.53 12.21L6.53 12.21L6.53 12.21Q5.64 13.23 4.03 13.23L4.03 13.23ZM13.29 13.23L13.29 13.23Q9.69 13.23 9.59 9.37L9.59 9.37L9.59 9.37Q9.58 8.95 9.58 8.19L9.58 8.19L9.58 8.19Q9.58 7.43 9.59 7.01L9.59 7.01L9.59 7.01Q9.65 5.11 10.63 4.13L10.63 4.13L10.63 4.13Q11.61 3.15 13.29 3.15L13.29 3.15L13.29 3.15Q14.97 3.15 15.95 4.13L15.95 4.13L15.95 4.13Q16.93 5.11 16.98 7.01L16.98 7.01L16.98 7.01Q17.01 7.85 17.01 8.19L17.01 8.19L17.01 8.19Q17.01 8.53 16.98 9.37L16.98 9.37L16.98 9.37Q16.88 13.23 13.29 13.23L13.29 13.23ZM13.29 12.39L13.29 12.39Q14.55 12.39 15.30 11.63L15.30 11.63L15.30 11.63Q16.04 10.86 16.10 9.30L16.10 9.30L16.10 9.30Q16.13 8.46 16.13 8.19L16.13 8.19L16.13 8.19Q16.13 7.92 16.10 7.08L16.10 7.08L16.10 7.08Q16.04 5.52 15.29 4.75L15.29 4.75L15.29 4.75Q14.53 3.99 13.29 3.99L13.29 3.99L13.29 3.99Q12.04 3.99 11.28 4.75L11.28 4.75L11.28 4.75Q10.53 5.52 10.47 7.08L10.47 7.08L10.47 7.08Q10.46 7.50 10.46 8.19L10.46 8.19L10.46 8.19Q10.46 8.88 10.47 9.30L10.47 9.30L10.47 9.30Q10.53 10.86 11.28 11.63L11.28 11.63L11.28 11.63Q12.03 12.39 13.29 12.39L13.29 12.39ZM19.54 13.09L19.54 13.09Q19.40 13.09 19.32 13.01L19.32 13.01L19.32 13.01Q19.24 12.92 19.24 12.78L19.24 12.78L19.24 3.60L19.24 3.60Q19.24 3.46 19.32 3.37L19.32 3.37L19.32 3.37Q19.40 3.29 19.54 3.29L19.54 3.29L19.81 3.29L19.81 3.29Q19.95 3.29 20.03 3.37L20.03 3.37L20.03 3.37Q20.12 3.46 20.12 3.60L20.12 3.60L20.12 12.78L20.12 12.78Q20.12 12.92 20.03 13.01L20.03 13.01L20.03 13.01Q19.95 13.09 19.81 13.09L19.81 13.09L19.54 13.09ZM23.06 13.09L23.06 13.09Q22.92 13.09 22.83 13.01L22.83 13.01L22.83 13.01Q22.75 12.92 22.75 12.78L22.75 12.78L22.75 3.61L22.75 3.61Q22.75 3.47 22.83 3.38L22.83 3.38L22.83 3.38Q22.92 3.29 23.06 3.29L23.06 3.29L23.35 3.29L23.35 3.29Q23.53 3.29 23.65 3.46L23.65 3.46L28.81 11.35L28.81 3.61L28.81 3.61Q28.81 3.47 28.90 3.38L28.90 3.38L28.90 3.38Q28.98 3.29 29.12 3.29L29.12 3.29L29.37 3.29L29.37 3.29Q29.53 3.29 29.61 3.37L29.61 3.37L29.61 3.37Q29.69 3.46 29.69 3.61L29.69 3.61L29.69 12.77L29.69 12.77Q29.69 12.91 29.61 13.00L29.61 13.00L29.61 13.00Q29.53 13.09 29.39 13.09L29.39 13.09L29.08 13.09L29.08 13.09Q28.90 13.09 28.78 12.92L28.78 12.92L23.63 5.05L23.63 12.78L23.63 12.78Q23.63 12.92 23.54 13.01L23.54 13.01L23.54 13.01Q23.45 13.09 23.31 13.09L23.31 13.09L23.06 13.09ZM34.85 13.23L34.85 13.23Q33.52 13.23 32.70 12.36L32.70 12.36L32.70 12.36Q31.89 11.48 31.78 10.01L31.78 10.01L31.77 9.45L31.78 8.89L31.78 8.89Q31.89 7.43 32.70 6.55L32.70 6.55L32.70 6.55Q33.50 5.67 34.85 5.67L34.85 5.67L34.85 5.67Q36.30 5.67 37.12 6.64L37.12 6.64L37.12 6.64Q37.94 7.60 37.94 9.28L37.94 9.28L37.94 9.49L37.94 9.49Q37.94 9.63 37.85 9.72L37.85 9.72L37.85 9.72Q37.76 9.80 37.62 9.80L37.62 9.80L32.63 9.80L32.63 9.94L32.63 9.94Q32.66 10.60 32.94 11.16L32.94 11.16L32.94 11.16Q33.21 11.73 33.70 12.07L33.70 12.07L33.70 12.07Q34.19 12.42 34.85 12.42L34.85 12.42L34.85 12.42Q35.62 12.42 36.10 12.12L36.10 12.12L36.10 12.12Q36.58 11.82 36.79 11.51L36.79 11.51L36.79 11.51Q36.92 11.34 36.98 11.30L36.98 11.30L36.98 11.30Q37.04 11.26 37.21 11.26L37.21 11.26L37.44 11.26L37.44 11.26Q37.56 11.26 37.65 11.33L37.65 11.33L37.65 11.33Q37.73 11.40 37.73 11.51L37.73 11.51L37.73 11.51Q37.73 11.80 37.36 12.21L37.36 12.21L37.36 12.21Q36.99 12.63 36.33 12.93L36.33 12.93L36.33 12.93Q35.67 13.23 34.85 13.23L34.85 13.23ZM32.63 9.02L37.09 9.02L37.09 8.96L37.09 8.96Q37.09 7.88 36.48 7.18L36.48 7.18L36.48 7.18Q35.87 6.48 34.85 6.48L34.85 6.48L34.85 6.48Q33.82 6.48 33.23 7.18L33.23 7.18L33.23 7.18Q32.63 7.88 32.63 8.96L32.63 8.96L32.63 9.02ZM40.10 13.09L40.10 13.09Q39.96 13.09 39.87 13.01L39.87 13.01L39.87 13.01Q39.79 12.92 39.79 12.78L39.79 12.78L39.79 6.12L39.79 6.12Q39.79 5.98 39.87 5.89L39.87 5.89L39.87 5.89Q39.96 5.81 40.10 5.81L40.10 5.81L40.33 5.81L40.33 5.81Q40.47 5.81 40.56 5.89L40.56 5.89L40.56 5.89Q40.64 5.98 40.64 6.12L40.64 6.12L40.64 6.61L40.64 6.61Q41.01 6.15 41.49 5.91L41.49 5.91L41.49 5.91Q41.97 5.67 42.64 5.67L42.64 5.67L42.64 5.67Q44.21 5.67 44.88 6.99L44.88 6.99L44.88 6.99Q45.22 6.38 45.84 6.03L45.84 6.03L45.84 6.03Q46.47 5.67 47.26 5.67L47.26 5.67L47.26 5.67Q48.43 5.67 49.15 6.46L49.15 6.46L49.15 6.46Q49.88 7.25 49.88 8.71L49.88 8.71L49.88 12.78L49.88 12.78Q49.88 12.92 49.80 13.01L49.80 13.01L49.80 13.01Q49.71 13.09 49.57 13.09L49.57 13.09L49.34 13.09L49.34 13.09Q49.20 13.09 49.11 13.01L49.11 13.01L49.11 13.01Q49.03 12.92 49.03 12.78L49.03 12.78L49.03 8.85L49.03 8.85Q49.03 7.57 48.50 7.03L48.50 7.03L48.50 7.03Q47.98 6.48 47.12 6.48L47.12 6.48L47.12 6.48Q46.37 6.48 45.82 7.04L45.82 7.04L45.82 7.04Q45.26 7.59 45.26 8.85L45.26 8.85L45.26 12.78L45.26 12.78Q45.26 12.92 45.18 13.01L45.18 13.01L45.18 13.01Q45.09 13.09 44.95 13.09L44.95 13.09L44.72 13.09L44.72 13.09Q44.58 13.09 44.49 13.01L44.49 13.01L44.49 13.01Q44.41 12.92 44.41 12.78L44.41 12.78L44.41 8.85L44.41 8.85Q44.41 7.59 43.86 7.04L43.86 7.04L43.86 7.04Q43.32 6.48 42.50 6.48L42.50 6.48L42.50 6.48Q41.75 6.48 41.20 7.04L41.20 7.04L41.20 7.04Q40.64 7.59 40.64 8.83L40.64 8.83L40.64 12.78L40.64 12.78Q40.64 12.92 40.56 13.01L40.56 13.01L40.56 13.01Q40.47 13.09 40.33 13.09L40.33 13.09L40.10 13.09Z"></path></g><!----><!----></svg>